<svg xmlns="http://www.w3.org/2000/svg" viewBox="0 0 500 500"><g id="freepik--background-complete--inject-38"><path d="M92.59,399l-13.12.28-6.66.11c-2.23,0-4.47,0-6.7.06h-.44V399l-.06-11.19v-.5h.5l13.24.07c4.42,0,8.83.11,13.24.16h.28v.27c0,1.9-.09,3.79-.13,5.66Zm0,0-.14-5.65c0-1.86-.11-3.71-.13-5.54l.27.28c-4.41.05-8.82.15-13.24.16l-13.24.06.5-.5,0,11.19-.45-.44c2.18,0,4.36,0,6.55.05l6.58.11Z" style="fill:#ebebeb"></path><path d="M77.82,413.07l-13.12.28-6.66.11c-2.23.05-4.47,0-6.7.06H50.9v-.45l-.06-11.19v-.5h.5l13.24.07c4.41,0,8.83.11,13.24.16h.28v.27c0,1.9-.08,3.79-.13,5.66Zm0,0-.14-5.65c-.05-1.86-.11-3.71-.13-5.54l.27.28c-4.41,0-8.83.15-13.24.16l-13.24.06.5-.5-.05,11.19-.45-.44c2.18,0,4.36,0,6.55.05l6.58.11Z" style="fill:#ebebeb"></path><path d="M232.36,126.85l-13.12.28-6.66.11c-2.23.05-4.46,0-6.7.05h-.44v-.45l-.06-11.19v-.5h.5l13.24.06c4.42,0,8.83.11,13.24.17h.28v.27c0,1.9-.09,3.79-.13,5.65Zm0,0-.14-5.66c0-1.86-.11-3.7-.13-5.53l.27.27c-4.41,0-8.82.16-13.24.17l-13.24.06.5-.5,0,11.19-.45-.45c2.19,0,4.36,0,6.55.06l6.58.11Z" style="fill:#ebebeb"></path><path d="M217.59,141l-13.12.28-6.66.11c-2.23.05-4.47,0-6.7.05h-.44V141l-.06-11.19v-.5h.5l13.24.06c4.42,0,8.83.11,13.24.17h.28v.27c0,1.9-.09,3.79-.14,5.65Zm0,0-.14-5.66c0-1.86-.11-3.7-.13-5.53l.27.27c-4.41.05-8.82.16-13.24.17l-13.24.06.5-.5L191.56,141l-.45-.45c2.18,0,4.36,0,6.55.06l6.58.11Z" style="fill:#ebebeb"></path><path d="M202.88,126.85l-13.13.28-6.66.11c-2.22.05-4.46,0-6.69.05H176v-.45l0-11.19v-.5h.5l13.24.06c4.41,0,8.83.11,13.24.17h.27v.27c0,1.9-.08,3.79-.13,5.65Zm0,0-.14-5.66c-.05-1.86-.12-3.7-.13-5.53l.27.27c-4.41,0-8.83.16-13.24.17l-13.24.06.5-.5-.06,11.19-.44-.45c2.18,0,4.36,0,6.54.06l6.58.11Z" style="fill:#ebebeb"></path><path d="M448.66,413.07l-13.13.28-6.66.11c-2.22.05-4.46,0-6.69.06h-.45v-.45l-.05-11.19v-.5h.5l13.24.07c4.41,0,8.83.11,13.24.16h.27v.27c0,1.9-.08,3.79-.13,5.66Zm0,0-.14-5.65c0-1.86-.12-3.71-.13-5.54l.27.28c-4.41,0-8.83.15-13.24.16l-13.24.06.5-.5-.06,11.19-.44-.44c2.18,0,4.36,0,6.54.05l6.58.11Z" style="fill:#ebebeb"></path><path d="M287.85,344.56l-13.13.28-6.66.11c-2.22.05-4.46,0-6.69.05h-.45v-.45l-.05-11.19v-.5h.51l13.24.06c4.41,0,8.82.12,13.24.17h.27v.27c0,1.9-.09,3.79-.13,5.65Zm0,0-.14-5.65c0-1.87-.12-3.71-.14-5.54l.28.27c-4.42.05-8.83.16-13.24.17l-13.24.06.5-.5-.06,11.19-.44-.45c2.18,0,4.35,0,6.54.06l6.58.11Z" style="fill:#ebebeb"></path><path d="M433.89,67.49l-13.13.27-6.66.12c-2.22,0-4.46,0-6.69.05H407v-.45l0-11.19v-.51h.51l13.24.06c4.41,0,8.82.11,13.24.16h.27v.27c0,1.9-.09,3.78-.13,5.65Zm0,0-.14-5.66c-.05-1.86-.12-3.7-.14-5.53l.28.27c-4.42,0-8.83.16-13.24.16l-13.24.07.5-.5-.06,11.19-.44-.45c2.18,0,4.35,0,6.54.06l6.58.11Z" style="fill:#ebebeb"></path><path d="M448.66,81.6l-13.13.27-6.66.12c-2.22,0-4.46,0-6.69.05h-.45V81.6l-.05-11.19V69.9h.5l13.24.06c4.41,0,8.83.11,13.24.16h.27v.27c0,1.89-.08,3.78-.13,5.65Zm0,0-.14-5.66c0-1.86-.12-3.7-.13-5.53l.27.27c-4.41,0-8.83.16-13.24.16l-13.24.07.5-.5-.06,11.19-.44-.45c2.18,0,4.36,0,6.54.06l6.58.11Z" style="fill:#ebebeb"></path><path d="M77.82,67.49l-13.12.27L58,67.88c-2.23,0-4.47,0-6.7.05H50.9v-.45L50.84,56.3v-.51h.5l13.24.06c4.41,0,8.83.11,13.24.16h.28v.27c0,1.9-.08,3.78-.13,5.65Zm0,0-.14-5.66c-.05-1.86-.11-3.7-.13-5.53l.27.27c-4.41,0-8.83.16-13.24.16l-13.24.07.5-.5-.05,11.19L51.34,67c2.18,0,4.36,0,6.55.06l6.58.11Z" style="fill:#ebebeb"></path><polygon points="222.2 268.65 213.2 268.65 213.2 137.44 155.28 137.44 155.28 186.4 146.28 186.4 146.28 128.44 222.2 128.44 222.2 268.65" style="fill:#dbdbdb"></polygon><polygon points="252.16 268.65 243.16 268.65 243.16 180.12 314.58 180.12 314.58 189.12 252.16 189.12 252.16 268.65" style="fill:#dbdbdb"></polygon><rect x="176.8" y="267.54" width="110.07" height="8.42" style="fill:#dbdbdb"></rect><rect x="194.26" y="264.99" width="75.15" height="13.52" style="fill:#c7c7c7"></rect><rect x="266.75" y="177.86" width="21.24" height="13.52" style="fill:#c7c7c7"></rect><rect x="275.82" y="152.04" width="3.1" height="25.83" style="fill:#c7c7c7"></rect><rect x="274.61" y="130.09" width="5.53" height="2.35" style="fill:#dbdbdb"></rect><rect x="273.15" y="126.32" width="8.45" height="3.77" style="fill:#ebebeb"></rect><circle cx="277.37" cy="142.39" r="10.86" transform="translate(-19.45 237.84) rotate(-45)" style="fill:#ebebeb"></circle><circle cx="277.37" cy="142.39" r="9" transform="translate(-19.45 237.84) rotate(-45)" style="fill:#fff"></circle><path d="M277.37,142.39,270.69,139a7.52,7.52,0,0,1,13.37,0Z" style="fill:#dbdbdb"></path><path d="M279.22,142.39a1.85,1.85,0,1,1-1.85-1.84A1.85,1.85,0,0,1,279.22,142.39Z" style="fill:#263238"></path><polygon points="277.79 142.04 276.91 141.86 278.63 135.76 277.79 142.04" style="fill:#263238"></polygon><polygon points="396.23 187.28 387.23 187.28 387.23 150.12 453.72 150.12 453.72 159.12 396.23 159.12 396.23 187.28" style="fill:#dbdbdb"></polygon><rect x="413.39" y="147.86" width="21.24" height="13.52" transform="translate(848.02 309.25) rotate(180)" style="fill:#c7c7c7"></rect><rect x="422.46" y="142.04" width="3.1" height="5.83" transform="translate(848.02 289.9) rotate(180)" style="fill:#c7c7c7"></rect><rect x="414.27" y="138.07" width="19.47" height="4.54" style="fill:#c7c7c7"></rect><polygon points="113.32 199.24 104.32 199.24 104.32 171.08 46.83 171.08 46.83 162.08 113.32 162.08 113.32 199.24" style="fill:#dbdbdb"></polygon><rect x="65.92" y="159.82" width="21.24" height="13.52" style="fill:#c7c7c7"></rect><rect x="74.99" y="153.99" width="3.1" height="5.83" style="fill:#c7c7c7"></rect><rect x="66.81" y="150.02" width="19.47" height="4.54" transform="translate(153.08 304.59) rotate(180)" style="fill:#c7c7c7"></rect><rect x="51.43" y="196.6" width="133.9" height="240.7" style="fill:#ebebeb"></rect><polygon points="145.33 176.2 91.43 176.2 51.43 196.6 185.33 196.6 145.33 176.2" style="fill:#ebebeb"></polygon><polygon points="135.33 147.66 101.43 147.66 91.43 176.2 145.33 176.2 135.33 147.66" style="fill:#ebebeb"></polygon><rect x="95.94" y="138.68" width="44.89" height="8.98" style="fill:#dbdbdb"></rect><path d="M52.43,196.6c0,1.65-1,3-2.22,3s-2.22-1.34-2.22-3,1-3,2.22-3S52.43,194.94,52.43,196.6Z" style="fill:#fff"></path><path d="M62.85,196.6a2.89,2.89,0,1,1-2.88-3A2.94,2.94,0,0,1,62.85,196.6Z" style="fill:#fff"></path><ellipse cx="71.66" cy="196.6" rx="3.66" ry="2.99" style="fill:#fff"></ellipse><path d="M89.81,196.6c0,1.65-1.71,3-3.82,3s-3.82-1.34-3.82-3,1.71-3,3.82-3S89.81,194.94,89.81,196.6Z" style="fill:#fff"></path><path d="M105.44,196.6c0,1.65-1.71,3-3.82,3s-3.83-1.34-3.83-3,1.72-3,3.83-3S105.44,194.94,105.44,196.6Z" style="fill:#fff"></path><ellipse cx="118.38" cy="196.6" rx="3.82" ry="2.99" style="fill:#fff"></ellipse><ellipse cx="186.55" cy="196.6" rx="2.22" ry="2.99" style="fill:#fff"></ellipse><path d="M173.91,196.6a2.89,2.89,0,1,0,2.89-3A2.94,2.94,0,0,0,173.91,196.6Z" style="fill:#fff"></path><ellipse cx="165.1" cy="196.6" rx="3.66" ry="2.99" style="fill:#fff"></ellipse><path d="M147,196.6c0,1.65,1.71,3,3.83,3s3.82-1.34,3.82-3-1.71-3-3.82-3S147,194.94,147,196.6Z" style="fill:#fff"></path><ellipse cx="135.15" cy="196.6" rx="3.82" ry="2.99" style="fill:#fff"></ellipse><rect x="46.28" y="196.6" width="144.21" height="8.98" style="fill:#dbdbdb"></rect><path d="M52.43,384.78c0,1.65-1,3-2.22,3s-2.22-1.34-2.22-3,1-3,2.22-3S52.43,383.13,52.43,384.78Z" style="fill:#fff"></path><path d="M62.85,384.78a2.89,2.89,0,1,1-2.88-3A2.94,2.94,0,0,1,62.85,384.78Z" style="fill:#fff"></path><ellipse cx="71.66" cy="384.78" rx="3.66" ry="2.99" style="fill:#fff"></ellipse><path d="M89.81,384.78c0,1.65-1.71,3-3.82,3s-3.82-1.34-3.82-3,1.71-3,3.82-3S89.81,383.13,89.81,384.78Z" style="fill:#fff"></path><path d="M105.44,384.78c0,1.65-1.71,3-3.82,3s-3.83-1.34-3.83-3,1.72-3,3.83-3S105.44,383.13,105.44,384.78Z" style="fill:#fff"></path><ellipse cx="118.38" cy="384.78" rx="3.82" ry="2.99" style="fill:#fff"></ellipse><ellipse cx="186.55" cy="384.78" rx="2.22" ry="2.99" style="fill:#fff"></ellipse><path d="M173.91,384.78a2.89,2.89,0,1,0,2.89-3A2.94,2.94,0,0,0,173.91,384.78Z" style="fill:#fff"></path><ellipse cx="165.1" cy="384.78" rx="3.66" ry="2.99" style="fill:#fff"></ellipse><path d="M147,384.78c0,1.65,1.71,3,3.83,3s3.82-1.34,3.82-3-1.71-3-3.82-3S147,383.13,147,384.78Z" style="fill:#fff"></path><ellipse cx="135.15" cy="384.78" rx="3.82" ry="2.99" style="fill:#fff"></ellipse><rect x="46.28" y="384.28" width="144.21" height="8.98" style="fill:#dbdbdb"></rect><rect x="106.36" y="71.84" width="24.28" height="66.84" style="fill:#ebebeb"></rect><rect x="46.28" y="328.18" width="144.21" height="14.18" style="fill:#dbdbdb"></rect><path d="M52.43,335.27c0,2.11-1,3.83-2.22,3.83S48,337.38,48,335.27s1-3.82,2.22-3.82S52.43,333.16,52.43,335.27Z" style="fill:#fff"></path><path d="M62.85,335.27c0,2.11-1.29,3.83-2.88,3.83s-2.89-1.72-2.89-3.83,1.3-3.82,2.89-3.82S62.85,333.16,62.85,335.27Z" style="fill:#fff"></path><ellipse cx="71.66" cy="335.27" rx="3.66" ry="3.82" style="fill:#fff"></ellipse><path d="M89.81,335.27A3.82,3.82,0,1,1,86,331.45,3.83,3.83,0,0,1,89.81,335.27Z" style="fill:#fff"></path><path d="M105.44,335.27a3.83,3.83,0,1,1-3.82-3.82A3.83,3.83,0,0,1,105.44,335.27Z" style="fill:#fff"></path><circle cx="118.38" cy="335.27" r="3.82" style="fill:#fff"></circle><ellipse cx="186.55" cy="335.27" rx="2.22" ry="3.82" style="fill:#fff"></ellipse><path d="M173.91,335.27c0,2.11,1.29,3.83,2.89,3.83s2.88-1.72,2.88-3.83-1.29-3.82-2.88-3.82S173.91,333.16,173.91,335.27Z" style="fill:#fff"></path><ellipse cx="165.1" cy="335.27" rx="3.66" ry="3.82" style="fill:#fff"></ellipse><path d="M147,335.27a3.83,3.83,0,1,0,3.83-3.82A3.83,3.83,0,0,0,147,335.27Z" style="fill:#fff"></path><circle cx="135.15" cy="335.27" r="3.82" style="fill:#fff"></circle><rect x="102.27" y="122.53" width="32.44" height="16.15" style="fill:#dbdbdb"></rect><polygon points="134.71 138.68 102.27 138.68 102.27 135.05 134.71 132.94 134.71 138.68" style="fill:#c7c7c7"></polygon><rect x="282.92" y="196.6" width="133.9" height="240.7" style="fill:#ebebeb"></rect><polygon points="376.82 176.2 322.92 176.2 282.92 196.6 416.82 196.6 376.82 176.2" style="fill:#ebebeb"></polygon><polygon points="366.82 147.66 332.92 147.66 322.92 176.2 376.82 176.2 366.82 147.66" style="fill:#ebebeb"></polygon><rect x="327.43" y="138.68" width="44.89" height="8.98" style="fill:#dbdbdb"></rect><ellipse cx="281.7" cy="196.6" rx="2.22" ry="2.99" style="fill:#fff"></ellipse><path d="M294.34,196.6a2.89,2.89,0,1,1-2.88-3A2.94,2.94,0,0,1,294.34,196.6Z" style="fill:#fff"></path><ellipse cx="303.15" cy="196.6" rx="3.66" ry="2.99" style="fill:#fff"></ellipse><path d="M321.3,196.6c0,1.65-1.71,3-3.82,3s-3.82-1.34-3.82-3,1.71-3,3.82-3S321.3,194.94,321.3,196.6Z" style="fill:#fff"></path><ellipse cx="333.11" cy="196.6" rx="3.82" ry="2.99" style="fill:#fff"></ellipse><ellipse cx="349.87" cy="196.6" rx="3.82" ry="2.99" style="fill:#fff"></ellipse><path d="M415.83,196.6c0,1.65,1,3,2.21,3s2.22-1.34,2.22-3-1-3-2.22-3S415.83,194.94,415.83,196.6Z" style="fill:#fff"></path><path d="M405.4,196.6a2.89,2.89,0,1,0,2.89-3A2.94,2.94,0,0,0,405.4,196.6Z" style="fill:#fff"></path><ellipse cx="396.59" cy="196.6" rx="3.66" ry="2.99" style="fill:#fff"></ellipse><path d="M378.44,196.6c0,1.65,1.71,3,3.83,3s3.82-1.34,3.82-3-1.71-3-3.82-3S378.44,194.94,378.44,196.6Z" style="fill:#fff"></path><path d="M362.81,196.6c0,1.65,1.71,3,3.83,3s3.82-1.34,3.82-3-1.71-3-3.82-3S362.81,194.94,362.81,196.6Z" style="fill:#fff"></path><rect x="277.77" y="196.6" width="144.21" height="8.98" style="fill:#dbdbdb"></rect><ellipse cx="281.7" cy="384.78" rx="2.22" ry="2.99" style="fill:#fff"></ellipse><path d="M294.34,384.78a2.89,2.89,0,1,1-2.88-3A2.94,2.94,0,0,1,294.34,384.78Z" style="fill:#fff"></path><ellipse cx="303.15" cy="384.78" rx="3.66" ry="2.99" style="fill:#fff"></ellipse><path d="M321.3,384.78c0,1.65-1.71,3-3.82,3s-3.82-1.34-3.82-3,1.71-3,3.82-3S321.3,383.13,321.3,384.78Z" style="fill:#fff"></path><ellipse cx="333.11" cy="384.78" rx="3.82" ry="2.99" style="fill:#fff"></ellipse><ellipse cx="349.87" cy="384.78" rx="3.82" ry="2.99" style="fill:#fff"></ellipse><path d="M415.83,384.78c0,1.65,1,3,2.21,3s2.22-1.34,2.22-3-1-3-2.22-3S415.83,383.13,415.83,384.78Z" style="fill:#fff"></path><path d="M405.4,384.78a2.89,2.89,0,1,0,2.89-3A2.94,2.94,0,0,0,405.4,384.78Z" style="fill:#fff"></path><ellipse cx="396.59" cy="384.78" rx="3.66" ry="2.99" style="fill:#fff"></ellipse><path d="M378.44,384.78c0,1.65,1.71,3,3.83,3s3.82-1.34,3.82-3-1.71-3-3.82-3S378.44,383.13,378.44,384.78Z" style="fill:#fff"></path><path d="M362.81,384.78c0,1.65,1.71,3,3.83,3s3.82-1.34,3.82-3-1.71-3-3.82-3S362.81,383.13,362.81,384.78Z" style="fill:#fff"></path><rect x="277.77" y="384.28" width="144.21" height="8.98" style="fill:#dbdbdb"></rect><rect x="337.85" y="71.84" width="24.28" height="66.84" style="fill:#ebebeb"></rect><rect x="277.77" y="328.18" width="144.21" height="14.18" style="fill:#dbdbdb"></rect><ellipse cx="281.7" cy="335.27" rx="2.22" ry="3.82" style="fill:#fff"></ellipse><path d="M294.34,335.27c0,2.11-1.29,3.83-2.88,3.83s-2.89-1.72-2.89-3.83,1.3-3.82,2.89-3.82S294.34,333.16,294.34,335.27Z" style="fill:#fff"></path><ellipse cx="303.15" cy="335.27" rx="3.66" ry="3.82" style="fill:#fff"></ellipse><path d="M321.3,335.27a3.82,3.82,0,1,1-3.82-3.82A3.83,3.83,0,0,1,321.3,335.27Z" style="fill:#fff"></path><circle cx="333.11" cy="335.27" r="3.82" style="fill:#fff"></circle><circle cx="349.87" cy="335.27" r="3.82" style="fill:#fff"></circle><path d="M415.83,335.27c0,2.11,1,3.83,2.21,3.83s2.22-1.72,2.22-3.83-1-3.82-2.22-3.82S415.83,333.16,415.83,335.27Z" style="fill:#fff"></path><path d="M405.4,335.27c0,2.11,1.29,3.83,2.89,3.83s2.88-1.72,2.88-3.83-1.29-3.82-2.88-3.82S405.4,333.16,405.4,335.27Z" style="fill:#fff"></path><ellipse cx="396.59" cy="335.27" rx="3.66" ry="3.82" style="fill:#fff"></ellipse><path d="M378.44,335.27a3.83,3.83,0,1,0,3.83-3.82A3.83,3.83,0,0,0,378.44,335.27Z" style="fill:#fff"></path><path d="M362.81,335.27a3.83,3.83,0,1,0,3.83-3.82A3.83,3.83,0,0,0,362.81,335.27Z" style="fill:#fff"></path><rect x="333.76" y="122.53" width="32.44" height="16.15" style="fill:#dbdbdb"></rect><polygon points="366.2 138.68 333.76 138.68 333.76 135.05 366.2 132.94 366.2 138.68" style="fill:#c7c7c7"></polygon></g><g id="freepik--Bottles--inject-38"><path d="M336.9,437.47H302.54c-1.63,0,0-51.89,0-57.68s9.93-20.76,9.93-24V329.14H327v26.61c0,3.28,9.94,18.28,9.94,24S338.52,437.47,336.9,437.47Z" style="fill:#fff"></path><path d="M336.9,437.47l-18.12,0-9,0h-7.08a.53.53,0,0,1-.16,0,.23.23,0,0,1-.15-.14,1.88,1.88,0,0,1-.18-.57c-.07-.38-.11-.76-.15-1.13-.25-3-.27-6-.31-9.06s0-6,0-9.06q.06-9.06.24-18.11l.34-18.11a19.78,19.78,0,0,1,.08-2.29,4.85,4.85,0,0,1,.19-1.14,10,10,0,0,1,.28-1.11,37.15,37.15,0,0,1,1.62-4.27c1.21-2.77,2.6-5.46,4-8.15.68-1.35,1.37-2.69,2-4.05a21.88,21.88,0,0,0,1.64-4.11l.07-.51v-8.49q0-9,0-18.11v-.35h.34l14.49,0h.31v.31l0,13.82,0,6.91v5.18a4.65,4.65,0,0,0,.18,1.64,44.7,44.7,0,0,0,2.8,6.26c1,2.06,2.1,4.1,3.11,6.17a66.33,66.33,0,0,1,2.78,6.35c.2.54.36,1.1.54,1.65a16.76,16.76,0,0,1,.36,1.71,12.84,12.84,0,0,1,.09,1.74l0,1.73.48,27.63c.06,4.61.1,9.22.09,13.82,0,2.31,0,4.61-.08,6.91,0,1.15-.07,2.31-.13,3.46,0,.57-.08,1.14-.14,1.72,0,.28-.06.57-.11.85a3,3,0,0,1-.09.43C337.06,437.24,337,437.42,336.9,437.47Zm0,0c.14-.05.16-.23.21-.35s.07-.28.09-.43.08-.57.1-.85c.06-.58.1-1.15.13-1.73.05-1.15.08-2.3.11-3.45q.06-3.45,0-6.91c0-4.6-.08-9.21-.16-13.81l-.64-27.63,0-1.73c0-.29,0-.58,0-.86l-.08-.84a16.07,16.07,0,0,0-.37-1.67c-.18-.54-.34-1.09-.54-1.62a64.26,64.26,0,0,0-2.8-6.3c-1-2.06-2.09-4.1-3.14-6.15a46.27,46.27,0,0,1-2.87-6.32,5.42,5.42,0,0,1-.2-1.77v-5.18l0-6.91,0-13.82.31.31-14.49,0,.35-.35q0,9.06,0,18.11v8.49l-.09.62a22.36,22.36,0,0,1-1.71,4.28c-.66,1.36-1.36,2.7-2.05,4-1.39,2.69-2.79,5.36-4,8.11s-2.38,5.54-2.17,8.58l-.44,18.11q-.21,9.06-.33,18.11-.06,4.53-.05,9.06c0,3,0,6,.26,9,0,.37.07.75.14,1.11a2.35,2.35,0,0,0,.15.51c0,.11.27.05.43.07h2.27l4.53,0,9,0Z" style="fill:#263238"></path><path d="M334.37,434.15h-29.3c-1.39,0,0-48.9,0-53.84s9.63-20,9.63-22.83v-12.2h10v12.2c0,2.79,9.64,17.91,9.64,22.83S335.75,434.15,334.37,434.15Z" style="fill:#407BFF"></path><g style="opacity:0.1"><path d="M332.77,398.1a1.55,1.55,0,1,0,.1,2.18A1.55,1.55,0,0,0,332.77,398.1Z"></path><path d="M324.09,363a1.54,1.54,0,1,0,.11,2.19A1.55,1.55,0,0,0,324.09,363Z"></path><path d="M333,392.73a1.09,1.09,0,1,0,.07,1.55A1.09,1.09,0,0,0,333,392.73Z"></path><path d="M317.39,427.75a1.1,1.1,0,0,0-1.55.08,1.09,1.09,0,0,0,1.62,1.47A1.1,1.1,0,0,0,317.39,427.75Z"></path><path d="M310,382.5a1.09,1.09,0,1,0-1.47,1.61A1.09,1.09,0,1,0,310,382.5Z"></path><path d="M327.75,399a.78.78,0,1,0,.05,1.1A.77.77,0,0,0,327.75,399Z"></path><path d="M314.28,425.25a.77.77,0,1,0-1,1.14.77.77,0,0,0,1-1.14Z"></path></g><rect x="311.24" y="325.59" width="16.96" height="3.55" style="fill:#fff"></rect><path d="M328.19,325.59c-2.91.09-5.76.18-8.57.24-1.41,0-2.81.08-4.2.08l-4.18,0,.35-.35,0,3.55-.37-.38,8.48.06c2.82.06,5.65.09,8.47.19l-.13.13Zm0,0,.14,3.55v.13h-.14c-2.82.1-5.65.13-8.47.19l-8.48.05h-.38v-.38l0-3.55v-.35h.35l4.3,0c1.43,0,2.85.05,4.27.08C322.65,325.42,325.46,325.51,328.19,325.59Z" style="fill:#263238"></path><rect x="311.24" y="321.48" width="16.96" height="3.55" style="fill:#fff"></rect><path d="M328.19,321.48c-2.91.09-5.76.17-8.57.23-1.41,0-2.81.08-4.2.09l-4.18,0,.35-.35,0,3.55-.37-.38,8.48.06c2.82.05,5.65.09,8.47.18l-.13.14Zm0,0,.14,3.55v.12h-.14c-2.82.1-5.65.13-8.47.18l-8.48.06h-.38V325l0-3.55v-.35h.35l4.3,0c1.43,0,2.85.06,4.27.09C322.65,321.31,325.46,321.39,328.19,321.48Z" style="fill:#263238"></path><ellipse cx="317.35" cy="404.73" rx="10.65" ry="16.89" style="fill:#fff"></ellipse><rect x="312.47" y="348.37" width="14.5" height="6.81" style="fill:#455a64"></rect><rect x="302.05" y="399.24" width="35.34" height="10.98" style="fill:#455a64"></rect><path d="M378.55,437.47H344.18c-1.62,0,0-51.89,0-57.68s9.94-20.76,9.94-24V329.14h14.49v26.61c0,3.28,9.94,18.28,9.94,24S380.17,437.47,378.55,437.47Z" style="fill:#fff"></path><path d="M378.55,437.47l-18.12,0-9.06,0H344.3a.53.53,0,0,1-.16,0c-.11,0-.12-.09-.16-.14a2.17,2.17,0,0,1-.17-.57c-.07-.38-.11-.76-.15-1.13-.26-3-.27-6-.31-9.06s0-6,0-9.06q.06-9.06.24-18.11l.34-18.11a22.23,22.23,0,0,1,.07-2.29,6.17,6.17,0,0,1,.19-1.14,10,10,0,0,1,.29-1.11,37.15,37.15,0,0,1,1.62-4.27c1.21-2.78,2.6-5.46,4-8.15.68-1.35,1.37-2.69,2-4.05a21.88,21.88,0,0,0,1.64-4.11l.07-.51v-8.49q0-9,0-18.11v-.35h.35l14.49,0h.31v.31l0,13.82,0,6.91v5.18a4.65,4.65,0,0,0,.18,1.64,44.7,44.7,0,0,0,2.8,6.26c1,2.06,2.09,4.1,3.11,6.17a66.33,66.33,0,0,1,2.78,6.35c.2.54.36,1.1.54,1.65s.29,1.13.36,1.71a12.84,12.84,0,0,1,.09,1.74l0,1.73.49,27.63c.06,4.61.1,9.22.09,13.82,0,2.31,0,4.61-.09,6.91,0,1.15-.06,2.31-.13,3.46,0,.57-.07,1.14-.13,1.72,0,.28-.06.57-.11.85a3,3,0,0,1-.09.43C378.71,437.24,378.69,437.42,378.55,437.47Zm0,0c.14-.05.16-.23.21-.35s.06-.28.08-.43.08-.57.11-.85c.06-.58.09-1.15.12-1.73.06-1.15.09-2.3.12-3.45q.06-3.45,0-6.91,0-6.9-.17-13.81l-.63-27.63,0-1.73c0-.29,0-.58,0-.86l-.09-.84a13.81,13.81,0,0,0-.36-1.67c-.18-.54-.34-1.09-.54-1.62a64.26,64.26,0,0,0-2.8-6.3c-1-2.06-2.09-4.1-3.14-6.15a46.27,46.27,0,0,1-2.87-6.32,5.72,5.72,0,0,1-.21-1.77v-5.18l0-6.91,0-13.82.31.31-14.49,0,.35-.35q0,9.06,0,18.11v8.49l-.09.62a22.38,22.38,0,0,1-1.72,4.28c-.66,1.36-1.35,2.7-2.05,4-1.38,2.69-2.78,5.36-4,8.11s-2.38,5.54-2.17,8.58L344,399.48q-.21,9.06-.34,18.11c0,3-.05,6,0,9.06s0,6,.26,9c0,.37.07.75.14,1.11a2.35,2.35,0,0,0,.15.51c0,.11.26.05.43.07h2.27l4.52,0,9.06,0Z" style="fill:#263238"></path><path d="M376,434.15H346.72c-1.39,0,0-48.9,0-53.84s9.63-20,9.63-22.83v-12.2h10v12.2c0,2.79,9.63,17.91,9.63,22.83S377.4,434.15,376,434.15Z" style="fill:#407BFF"></path><g style="opacity:0.1"><path d="M374.42,398.1a1.55,1.55,0,1,0,.1,2.18A1.55,1.55,0,0,0,374.42,398.1Z"></path><path d="M365.74,363a1.55,1.55,0,1,0,.11,2.19A1.55,1.55,0,0,0,365.74,363Z"></path><path d="M374.62,392.73a1.1,1.1,0,0,0-1.55.08,1.09,1.09,0,0,0,1.62,1.47A1.1,1.1,0,0,0,374.62,392.73Z"></path><path d="M359,427.75a1.09,1.09,0,1,0,.08,1.55A1.1,1.1,0,0,0,359,427.75Z"></path><path d="M351.69,382.5a1.09,1.09,0,1,0,.07,1.54A1.08,1.08,0,0,0,351.69,382.5Z"></path><path d="M369.4,399a.77.77,0,0,0-1.09.06.76.76,0,0,0,.05,1.09.78.78,0,0,0,1-1.15Z"></path><path d="M355.93,425.25a.77.77,0,0,0-1.09.05.77.77,0,0,0,1.14,1A.77.77,0,0,0,355.93,425.25Z"></path></g><rect x="352.89" y="325.59" width="16.96" height="3.55" style="fill:#fff"></rect><path d="M369.84,325.59c-2.91.09-5.76.18-8.57.24-1.41,0-2.81.08-4.2.08l-4.18,0,.35-.35,0,3.55-.37-.38,8.47.06c2.83.06,5.66.09,8.48.19l-.13.13Zm0,0,.13,3.55v.13h-.14c-2.82.1-5.65.13-8.48.19l-8.47.05h-.38v-.38l0-3.55v-.35h.35l4.3,0c1.43,0,2.85.05,4.27.08C364.3,325.42,367.1,325.51,369.84,325.59Z" style="fill:#263238"></path><rect x="352.89" y="321.48" width="16.96" height="3.55" style="fill:#fff"></rect><path d="M369.84,321.48c-2.91.09-5.76.17-8.57.23-1.41,0-2.81.08-4.2.09l-4.18,0,.35-.35,0,3.55-.37-.38,8.47.06c2.83.05,5.66.09,8.48.18l-.13.14Zm0,0L370,325v.12h-.14c-2.82.1-5.65.13-8.48.18l-8.47.06h-.38V325l0-3.55v-.35h.35l4.3,0c1.43,0,2.85.06,4.27.09C364.3,321.31,367.1,321.39,369.84,321.48Z" style="fill:#263238"></path><ellipse cx="359" cy="404.73" rx="10.65" ry="16.89" style="fill:#fff"></ellipse><rect x="354.12" y="348.37" width="14.5" height="6.81" style="fill:#455a64"></rect><rect x="343.69" y="399.24" width="35.34" height="10.98" style="fill:#455a64"></rect><path d="M420.19,437.47H385.83c-1.62,0,0-51.89,0-57.68s9.94-20.76,9.94-24V329.14h14.49v26.61c0,3.28,9.93,18.28,9.93,24S421.82,437.47,420.19,437.47Z" style="fill:#fff"></path><path d="M420.19,437.47l-18.11,0-9.06,0H386a.59.59,0,0,1-.17,0,.26.26,0,0,1-.15-.14,2.17,2.17,0,0,1-.17-.57,11.3,11.3,0,0,1-.15-1.13c-.26-3-.27-6-.32-9.06s0-6,0-9.06q.06-9.06.24-18.11l.33-18.11c0-.76,0-1.49.08-2.29a6.17,6.17,0,0,1,.19-1.14,10,10,0,0,1,.29-1.11,37.1,37.1,0,0,1,1.61-4.27c1.22-2.77,2.61-5.46,4-8.15.68-1.35,1.37-2.69,2-4.05a21.83,21.83,0,0,0,1.63-4.11l.08-.51v-8.49q0-9,0-18.11v-.35h.35l14.49,0h.31v.31l0,13.82,0,6.91v5.18a5.17,5.17,0,0,0,.18,1.64,47.14,47.14,0,0,0,2.8,6.26c1,2.06,2.1,4.1,3.11,6.17a64,64,0,0,1,2.79,6.35c.19.54.35,1.1.54,1.65s.29,1.13.36,1.71a14.7,14.7,0,0,1,.09,1.74l0,1.73.49,27.63c.05,4.61.09,9.22.08,13.82,0,2.31,0,4.61-.08,6.91,0,1.15-.06,2.31-.13,3.46,0,.57-.07,1.14-.13,1.72,0,.28-.06.57-.11.85s-.06.29-.09.43S420.34,437.42,420.19,437.47Zm0,0c.15-.05.17-.23.22-.35s.06-.28.08-.43.08-.57.11-.85c.06-.58.09-1.15.12-1.73.06-1.15.09-2.3.11-3.45.05-2.3.05-4.6.05-6.91q0-6.9-.17-13.81l-.64-27.63,0-1.73c0-.29,0-.58,0-.86l-.08-.84a13.81,13.81,0,0,0-.36-1.67c-.18-.54-.34-1.09-.54-1.62a64.26,64.26,0,0,0-2.8-6.3c-1-2.06-2.09-4.1-3.14-6.15a45.09,45.09,0,0,1-2.87-6.32,5.43,5.43,0,0,1-.21-1.77v-5.18l0-6.91,0-13.82.31.31-14.49,0,.35-.35q0,9.06,0,18.11v8.49l-.09.62a22.38,22.38,0,0,1-1.72,4.28c-.66,1.36-1.36,2.7-2.05,4-1.38,2.69-2.78,5.36-4,8.11s-2.38,5.54-2.17,8.58l-.44,18.11c-.14,6-.27,12.08-.34,18.11,0,3-.06,6-.05,9.06s0,6,.27,9a10.2,10.2,0,0,0,.14,1.11,1.6,1.6,0,0,0,.15.51c0,.11.26.05.43.07h2.26l4.53,0,9.06,0Z" style="fill:#263238"></path><path d="M417.66,434.15h-29.3c-1.38,0,0-48.9,0-53.84s9.64-20,9.64-22.83v-12.2h10v12.2c0,2.79,9.63,17.91,9.63,22.83S419.05,434.15,417.66,434.15Z" style="fill:#407BFF"></path><g style="opacity:0.1"><path d="M416.06,398.1a1.54,1.54,0,1,0,.11,2.18A1.54,1.54,0,0,0,416.06,398.1Z"></path><path d="M407.39,363a1.55,1.55,0,1,0,.11,2.19A1.55,1.55,0,0,0,407.39,363Z"></path><path d="M416.27,392.73a1.1,1.1,0,0,0-1.55.08,1.09,1.09,0,0,0,1.62,1.47A1.1,1.1,0,0,0,416.27,392.73Z"></path><path d="M400.68,427.75a1.09,1.09,0,1,0,.08,1.55A1.1,1.1,0,0,0,400.68,427.75Z"></path><path d="M393.34,382.5a1.09,1.09,0,1,0-1.47,1.61,1.09,1.09,0,1,0,1.47-1.61Z"></path><path d="M411.05,399A.77.77,0,0,0,410,399a.76.76,0,0,0,.05,1.09.77.77,0,0,0,1.09-.05A.79.79,0,0,0,411.05,399Z"></path><path d="M397.58,425.25a.77.77,0,0,0-1.09.05.77.77,0,0,0,1.14,1A.77.77,0,0,0,397.58,425.25Z"></path></g><rect x="394.53" y="325.59" width="16.96" height="3.55" style="fill:#fff"></rect><path d="M411.49,325.59c-2.91.09-5.76.18-8.57.24-1.41,0-2.82.08-4.21.08l-4.17,0,.35-.35,0,3.55-.37-.38,8.47.06c2.83.06,5.65.09,8.48.19l-.13.13Zm0,0,.13,3.55v.13h-.14c-2.83.1-5.65.13-8.48.19l-8.47.05h-.38v-.38l0-3.55v-.35h.35l4.29,0c1.44,0,2.86.05,4.28.08C406,325.42,408.75,325.51,411.49,325.59Z" style="fill:#263238"></path><rect x="394.53" y="321.48" width="16.96" height="3.55" style="fill:#fff"></rect><path d="M411.49,321.48c-2.91.09-5.76.17-8.57.23-1.41,0-2.82.08-4.21.09l-4.17,0,.35-.35,0,3.55-.37-.38,8.47.06c2.83.05,5.65.09,8.48.18l-.13.14Zm0,0,.13,3.55v.12h-.14c-2.83.1-5.65.13-8.48.18l-8.47.06h-.38V325l0-3.55v-.35h.35l4.29,0c1.44,0,2.86.06,4.28.09C406,321.31,408.75,321.39,411.49,321.48Z" style="fill:#263238"></path><ellipse cx="400.65" cy="404.73" rx="10.65" ry="16.89" style="fill:#fff"></ellipse><rect x="395.77" y="348.37" width="14.5" height="6.81" style="fill:#455a64"></rect><rect x="385.34" y="399.24" width="35.34" height="10.98" style="fill:#455a64"></rect></g><g id="freepik--Table--inject-38"><polygon points="44.45 437.47 95.84 437.23 147.23 437.14 250 436.97 352.77 437.14 404.16 437.23 455.55 437.47 404.16 437.72 352.77 437.8 250 437.97 147.23 437.8 95.84 437.71 44.45 437.47" style="fill:#263238"></polygon></g><g id="freepik--speech-bubble--inject-38"><path d="M270.22,105.26a36.29,36.29,0,0,1-57.93,29.14l-17.78,4.54,7.4-16.56a36.3,36.3,0,1,1,68.31-17.12Z" style="fill:#fff"></path><path d="M270.22,105.26a36.48,36.48,0,0,1-5.39,19,38.73,38.73,0,0,1-2.88,4.1,42.38,42.38,0,0,1-3.47,3.62c-.64.54-1.21,1.17-1.89,1.65l-2,1.51c-.67.51-1.41.9-2.12,1.35l-1.07.66c-.36.21-.75.38-1.12.56-.75.37-1.5.75-2.26,1.1l-2.36.88a16.61,16.61,0,0,1-2.4.73c-.82.2-1.62.48-2.45.6a34.86,34.86,0,0,1-5,.6,31.41,31.41,0,0,1-5,0,36.37,36.37,0,0,1-9.82-2.18,36.92,36.92,0,0,1-8.87-4.79l.3.06-17.76,4.62-.88.23.37-.84,7.36-16.57,0,.42a36,36,0,0,1-4.33-16,36.68,36.68,0,0,1,13.15-29.41A36.35,36.35,0,0,1,225,69.82a36.54,36.54,0,0,1,45.19,35.44Zm0,0a36,36,0,0,0-45.06-34.91,35.63,35.63,0,0,0-14.37,7.44,37.44,37.44,0,0,0-9.65,13,35.88,35.88,0,0,0,1.2,31.4l.11.21-.1.22-7.44,16.54-.51-.6,17.8-4.46.17-.05.13.11a35.89,35.89,0,0,0,18.31,7.07,31.85,31.85,0,0,0,5,.07,34.53,34.53,0,0,0,5-.54c.82-.11,1.61-.38,2.42-.56a16.88,16.88,0,0,0,2.4-.7l2.35-.84c.76-.34,1.5-.71,2.26-1.06.37-.19.75-.35,1.12-.55l1.07-.64c.7-.45,1.45-.83,2.12-1.32l2-1.49a22.54,22.54,0,0,0,1.89-1.63,40.66,40.66,0,0,0,3.48-3.59,41.23,41.23,0,0,0,2.89-4.08A36.49,36.49,0,0,0,270.22,105.26Z" style="fill:#263238"></path><polygon points="228.04 126.86 211.77 110.39 217.23 104.99 226.74 114.61 246.48 83.66 252.96 87.79 228.04 126.86" style="fill:#407BFF"></polygon></g><g id="freepik--Character--inject-38"><path d="M130.17,336.27a5.09,5.09,0,0,0,3,4.36,39,39,0,0,0,4.55,1.91A151.37,151.37,0,0,1,136.53,327c-.31-6-.18-11.89.06-17.87,0-.09.14-.08.15,0,.18,6,.59,12,.94,18,.31,5.26,1,10.54,1.31,15.8,1.6.51,3.22.94,4.86,1.31-.24-1.83-.47-3.65-.67-5.48-.61-5.51-.72-11-1-16.5,0-.13.17-.16.18,0,.38,5.36,1.24,10.75,1.89,16.08q.38,3.09.81,6.17c1.12.23,2.23.44,3.32.63.74.12,1.47.24,2.2.33-.36-3.61-.52-7.27-.78-10.82-.42-5.74-.47-11.48-.8-17.22a.15.15,0,1,1,.29,0c.36,5.71,1.11,11.42,1.6,17.13.31,3.67.8,7.41,1.1,11.13a86.72,86.72,0,0,0,29.26-1.84,131.18,131.18,0,0,0,16.35-4.91c1.29-.47,4.57-1.79,7.81-3.14-.16-1.73-.28-3.46-.46-5.13-.4-3.81-.58-7.67-1.08-11.45a.08.08,0,1,1,.15,0c.63,3.79,1.49,7.53,2,11.35.2,1.53.45,3.11.65,4.71,1.16-.48,2.27-1,3.24-1.4-1.19-7.15-1.55-14.49-2.32-21.66a.12.12,0,1,1,.24,0c1.08,7,2.6,14.05,3.31,21.13a13.2,13.2,0,0,0,2.12-1.11c1.5-1.5-2.81-29.78-3.67-36.39-1.58-12.34-8.4-73.91-13.42-85.35A36.74,36.74,0,0,0,172.52,189c-5.14-1.54-10.84-.57-16.06.18a32.32,32.32,0,0,0-14.86,6.35c-4.19,3.09-8.06,6.6-10.53,11.53s-3.87,10.54-5,16a129.2,129.2,0,0,0-2.24,17.81c-.75,12.27,5.51,73.26,5.94,85.56C129.91,329.69,129.86,333,130.17,336.27Z" style="fill:#263238"></path><path d="M153.4,298.05c14.42,9.27,77.85,46.88,104.08,40.1,19.08-4.93,49.33-34.37,61.62-47.42,7.74-8.22-33.34-54.86-39.88-47-10.33,12.37-38.16,42.1-42.81,44.84-5.1,3-47.11-4.26-75.64-7C135.08,279.18,143.25,291.52,153.4,298.05Z" style="fill:#d3766a"></path><path d="M346.56,272c-8.55,9.85-33.93,23.15-41.28,24s-31.41-41.54-28.47-48.55,34.3-37.94,47.4-40.33S355.43,261.79,346.56,272Z" style="fill:#d3766a"></path><path d="M281.22,241.24s5.78-16,5.88-30.9c.08-12.58-1.21-31.25,5.55-31.46,13.88-.43,17.09,46.15,17.09,46.15s-1.88,20.78-15.6,22.42C285.54,248.48,281.22,241.24,281.22,241.24Z" style="fill:#d3766a"></path><path d="M343.52,171.36V219c0,16.92-7.86,32.07-7.86,41.1v31.51H300V260.12c0-9-7.87-24.18-7.87-41.1V171.36Z" style="fill:#ebebeb"></path><path d="M343.52,171.36l.17,30.24.09,15.18a71.65,71.65,0,0,1-1.32,15.12c-.95,5-2.31,9.86-3.7,14.71-.68,2.43-1.38,4.85-1.92,7.3a30,30,0,0,0-.83,7.43l.06,30.29V292h-.41l-35.71.07h-.49v-.48l0-30.29c0-.63,0-1.27,0-1.87a14.27,14.27,0,0,0-.15-1.85c-.14-1.23-.39-2.46-.65-3.68-.54-2.45-1.24-4.87-1.92-7.3-1.38-4.85-2.75-9.74-3.7-14.72a71.86,71.86,0,0,1-1.32-15.13l0-15.14.06-30.29v-.27h.26Zm0,0-51.44.27.27-.27.06,30.29,0,15.14a70.26,70.26,0,0,0,1.36,15c1,4.94,2.34,9.78,3.75,14.63.69,2.43,1.4,4.86,1.95,7.34a36.76,36.76,0,0,1,.69,3.77,15.38,15.38,0,0,1,.16,1.92c.05.65,0,1.28,0,1.91l0,30.29-.48-.48,35.71.07-.41.41.06-30.29c0-.63,0-1.26,0-1.9a15.22,15.22,0,0,1,.16-1.92c.15-1.27.41-2.51.68-3.75.56-2.48,1.27-4.91,2-7.34,1.4-4.85,2.78-9.7,3.75-14.64a70.47,70.47,0,0,0,1.36-15l.09-15.1Z" style="fill:#263238"></path><path d="M340.48,193.43V220.5c0,14.92-8,28.27-8,36.24v26.72H303.13V256.74c0-8-8-21.32-8-36.24V190.27c5.94,0,8.49,4.14,18.64,4.95C322.3,195.9,334.23,191.2,340.48,193.43Z" style="fill:#407BFF"></path><g style="opacity:0.1"><path d="M333.31,235.57a2.18,2.18,0,1,0,.15,3.07A2.18,2.18,0,0,0,333.31,235.57Z"></path><path d="M336.2,200.08a2.18,2.18,0,1,0,.15,3.08A2.18,2.18,0,0,0,336.2,200.08Z"></path><path d="M333.59,228a1.53,1.53,0,0,0-2.17.1,1.54,1.54,0,1,0,2.17-.1Z"></path><path d="M311.64,277.35a1.54,1.54,0,1,0,.1,2.18A1.55,1.55,0,0,0,311.64,277.35Z"></path><path d="M301.29,202.73a1.54,1.54,0,1,0-2.07,2.28,1.54,1.54,0,0,0,2.07-2.28Z"></path><path d="M326.24,236.77a1.09,1.09,0,1,0,.08,1.54A1.09,1.09,0,0,0,326.24,236.77Z"></path><path d="M307.26,273.82a1.09,1.09,0,0,0-1.54.08,1.09,1.09,0,1,0,1.54-.08Z"></path></g><path d="M347.59,167.43v0a7.12,7.12,0,0,1-7.12,7.12H323.22v12.91a4.11,4.11,0,0,1-8.21,0v-5.39a1.34,1.34,0,0,0-1.36-1.36,1.32,1.32,0,0,0-1.35,1.31v9.87a6.46,6.46,0,0,1-12.92,0V174.55h-4.88a7.12,7.12,0,1,1,0-14.24h1.58a10,10,0,0,1,.25-2.21,9.72,9.72,0,0,1,16.56-4.4A13.38,13.38,0,0,1,338,160.33h2.44A7.11,7.11,0,0,1,347.59,167.43Z" style="fill:#fff"></path><path d="M347.59,167.43a7.4,7.4,0,0,1-.85,3.42,7.25,7.25,0,0,1-2.39,2.59,7,7,0,0,1-3.35,1.13c-1.18.06-2.37,0-3.55,0l-14.23,0,.07-.08.07,10.37v2.59a4.29,4.29,0,0,1-5.7,4,4.38,4.38,0,0,1-2.93-4.2l0-5.18a1.06,1.06,0,0,0-1.34-1.11,1,1,0,0,0-.69.64,4.92,4.92,0,0,0-.05,1.19l0,5.18v3.88a7.86,7.86,0,0,1-.14,1.37,6.89,6.89,0,0,1-13.58-.57,26.37,26.37,0,0,1-.06-2.64l0-5.18V174.55l.48.49-3.6,0c-.61,0-1.18,0-1.84,0a7.49,7.49,0,0,1-1.87-.38,7.55,7.55,0,0,1,.34-14.42,7.91,7.91,0,0,1,1.88-.28c.62,0,1.2,0,1.81,0l-.39.39a10,10,0,0,1,6.43-9.31,10.32,10.32,0,0,1,5.87-.4,10,10,0,0,1,5.07,2.95l-.37.05a13.66,13.66,0,0,1,6.59-6,13.35,13.35,0,0,1,2.14-.69,20.88,20.88,0,0,1,2.22-.34,15.2,15.2,0,0,1,4.46.44,14.8,14.8,0,0,1,4.06,1.86,13.31,13.31,0,0,1,5.28,7,14.67,14.67,0,0,1,.64,4.41l0,0c1.14,0,2.27,0,3.4.08a7.2,7.2,0,0,1,5.36,3.79A7.3,7.3,0,0,1,347.59,167.43Zm0,0a7.25,7.25,0,0,0-.81-3.26,7.09,7.09,0,0,0-2.22-2.52,7,7,0,0,0-3.13-1.22c-1.12-.13-2.26,0-3.39-.06h0v0a15.15,15.15,0,0,0-.66-4.38A14.47,14.47,0,0,0,335.3,152a14.64,14.64,0,0,0-3.22-3,14,14,0,0,0-4-1.79,14.76,14.76,0,0,0-4.39-.38c-.72.12-1.46.17-2.17.36a12.55,12.55,0,0,0-2.09.71,13.24,13.24,0,0,0-6.31,5.88l-.15.27-.21-.23a9.47,9.47,0,0,0-4.86-2.73,9.67,9.67,0,0,0-5.53.45A9.44,9.44,0,0,0,298,155a9.23,9.23,0,0,0-1.57,5.27v.38h-.39c-.59,0-1.21,0-1.79,0a6.7,6.7,0,0,0-1.67.27,6.92,6.92,0,0,0-2.88,1.73,6.66,6.66,0,0,0,2.61,11,9.53,9.53,0,0,0,3.41.35h4.09v16c0,.85,0,1.76,0,2.53a6,6,0,0,0,12-.69l0-1.3,0-2.59,0-5.18v-.65a2,2,0,0,1,.11-.74,1.62,1.62,0,0,1,1.14-1,1.66,1.66,0,0,1,2.08,1.71l0,5.18a3.88,3.88,0,0,0,7,2.47c1.12-1.32.75-3.18.83-4.88l.08-10.37v-.08h.08l14.23.05c1.18,0,2.37,0,3.55,0a7.09,7.09,0,0,0,3.33-1.11,7.19,7.19,0,0,0,2.39-2.57A7.35,7.35,0,0,0,347.59,167.43Z" style="fill:#263238"></path><path d="M319,208c-2.94,6.26,6.12,6.14,6.12,6.14s-13,3.31-13.53,10.94c-.5,7.34,10.44,6.81,11.22,6.79-.68.18-12.54,3.54-12.29,11.25.27,8,11.15,5.6,11.86,5.44-.6.38-8.37,5.46-6.84,11.28,2.62,10,22.84-2.46,30.9-.18,0,0-2.3,14.08-2.28,14.51,0,0,19.48-11.46,21.94-22.49a7.2,7.2,0,0,0-3.86-8.17s6.69-3,6.68-9.08c0-3.13-5-5.88-5-5.88s5.26-2.63,4.92-8c-.26-4.31-5.24-6.41-5.24-6.41s3.87-4.86,2.18-9.18C362.36,196.19,325.31,194.61,319,208Z" style="fill:#d3766a"></path><path d="M362.85,213.65a.1.1,0,0,0,0-.19c-12.06-3.49-26.38-3.63-38.26.63-.39.14-.33.84.12.77C337.85,212.8,349.64,212,362.85,213.65Z" style="fill:#263238"></path><path d="M364.1,228.48c.14,0,.18-.22,0-.26-12.45-3.53-28.58-3.25-41.7,3.28-.45.23-.63.88-.09.66C331.4,228.48,352.21,227,364.1,228.48Z" style="fill:#263238"></path><path d="M321.63,249.33c12.82-5.78,26.2-6.86,40.11-6,.18,0,.18-.25,0-.3-6.69-2.28-15.61-1.9-22.53-1a37.12,37.12,0,0,0-17.81,6.88C321.22,249,321.35,249.46,321.63,249.33Z" style="fill:#263238"></path><path d="M324.93,214c-.46.17.3.66-.17.85-1.94.77-13.25,6.41-12.52,10.86.59,3.56,5.79,5.24,8,5.1l5.66-.35-5.19,2.3a23.33,23.33,0,0,0-6.33,4c-1.8,1.67-3.16,3.81-3.09,6a4.75,4.75,0,0,0,3.56,4.79,14.36,14.36,0,0,0,7.18-.17l6.52-1.6L323,249.51a22,22,0,0,0-4.25,3.59,9,9,0,0,0-2.42,4.58,4.27,4.27,0,0,0,1.76,4.14,9.53,9.53,0,0,0,5.2.95c3.81-.16,7.64-1.15,11.48-1.93,1.92-.41,3.85-.82,5.8-1.14a14,14,0,0,1,5.9,0,15.16,15.16,0,0,0-5.79.57c-1.9.47-3.78,1-5.67,1.57a63,63,0,0,1-11.62,2.58,11,11,0,0,1-6.27-.94,6,6,0,0,1-2.84-6,11,11,0,0,1,2.86-5.76,23.92,23.92,0,0,1,4.67-4.07l.91,2a16.54,16.54,0,0,1-8.48.28,6.81,6.81,0,0,1-3.83-2.64,7.69,7.69,0,0,1-1.33-4.39c0-3.17,1.86-5.82,3.91-7.65a25.52,25.52,0,0,1,7-4.35l.47,2c-2.87.08-8.88-1.16-10.5-6.58C308.92,218.9,322.41,214.61,324.93,214Z" style="fill:#263238"></path><path d="M325.13,214.14a14,14,0,0,1-4-1.39,3.23,3.23,0,0,1-1.78-2.73,6.51,6.51,0,0,1,1.39-3.44c.81-1.13,1.71-2.29,2.7-3.44a11.05,11.05,0,0,0-3.86,2.46,6.52,6.52,0,0,0-2.16,4.45,4.56,4.56,0,0,0,.93,2.59,4.78,4.78,0,0,0,2.15,1.48A7.51,7.51,0,0,0,325.13,214.14Z" style="fill:#263238"></path><path d="M219.61,285.88,200.3,328.42S168,311.7,150.48,298.24s-13.24-21.64,18.66-18.37S219.61,285.88,219.61,285.88Z" style="fill:#455a64"></path><path d="M194.15,322.62q3.22-9.33,6.92-18.5c1.21-3,2.38-6,3.65-9s2.84-6.08,4.14-9.16c.09-.22.44-.11.35.12-1.15,3-2.1,6.13-3.23,9.17s-2.47,6.22-3.72,9.32q-3.69,9.18-7.83,18.17A.15.15,0,0,1,194.15,322.62Z" style="fill:#263238"></path><path d="M213.84,298.59,200.3,328.42S168,311.7,150.47,298.24c-6.69-5.16-10.2-9.53-10.18-12.8Z" style="fill:#37474f"></path><path d="M219,437.27l-13.17-62.36s13.26-20.26,2.9-37.83c-5.24-8.9-32.34-41.49-48.24-53.23-18.7-13.81-36.66-1.1-43.64,8.37-14,18.95-27.87,63.53-32.69,145.07Z" style="fill:#455a64"></path><path d="M106,437.3c1-18.75,1.58-31.58,1.58-31.58L84.73,414v-5s49-42.28,49.33-47-6.12-80.17-6.12-80.17l4.56-2.59,13.9,42.56c18.43,1.71,36.68-6.3,36.68-6.3L159.73,283.1l4.83,2s45.84,46.44,48.86,60-6.6,31-6.6,31l15.79,61.24Z" style="fill:#407BFF"></path><path d="M165.11,369.94a130,130,0,0,1,19.13-.32c3.16.23,6.29.6,9.44,1,1.56.22,3.12.38,4.7.54a20.41,20.41,0,0,0,4.94,0,.12.12,0,0,1,0,.23,36.15,36.15,0,0,1-4.62.75,34.38,34.38,0,0,1-4.54,0c-3.22-.2-6.42-.55-9.63-.78-6.47-.46-12.94-.93-19.44-.93C164.83,370.47,164.81,370,165.11,369.94Z" style="fill:#263238"></path><path d="M150.67,378.29A139.18,139.18,0,0,1,166,374.73c2.6-.44,5.2-.73,7.83-1,1.25-.1,2.51-.18,3.76-.25s2.78,0,4.16,0c.14,0,.18.21,0,.22-1.3.13-2.59.47-3.88.67s-2.59.4-3.88.6c-2.6.41-5.19.84-7.79,1.23-5.2.76-10.37,1.57-15.54,2.52C150.46,378.77,150.41,378.37,150.67,378.29Z" style="fill:#263238"></path><path d="M163.13,375.2a129.59,129.59,0,0,1,19-1.81c3.17,0,6.31.1,9.46.29,1.57.1,3.14.14,4.72.17a20.21,20.21,0,0,0,4.91-.35.11.11,0,0,1,.06.22,35.32,35.32,0,0,1-4.54,1.1,34,34,0,0,1-4.51.33c-3.21.05-6.41,0-9.62,0-6.47,0-12.94.09-19.39.59C162.88,375.75,162.83,375.25,163.13,375.2Z" style="fill:#263238"></path><path d="M149.42,384.6a141,141,0,0,1,15-4.73c2.55-.64,5.11-1.12,7.7-1.55q1.86-.3,3.72-.54c1.37-.18,2.76-.18,4.12-.38.15,0,.2.2.06.22-1.28.23-2.53.67-3.79,1l-3.82.9c-2.55.6-5.08,1.24-7.64,1.82-5.1,1.16-10.18,2.37-15.24,3.71C149.25,385.09,149.17,384.7,149.42,384.6Z" style="fill:#263238"></path><path d="M109.91,302.1c-27.19,44.95-52,131.18-39.9,144.68,13.5,15,51.28-47.9,50.38-50.83-.68-2.22,5.47-50.35,7.26-87.67C129.13,277.28,116.64,291,109.91,302.1Z" style="fill:#d3766a"></path><path d="M126.15,365.75,82.66,348.69s15-33.15,27.53-51.33S131.1,283,129.51,315,126.15,365.75,126.15,365.75Z" style="fill:#455a64"></path><path d="M88.13,342.25Q97.61,345,107,348.19c3.07,1.05,6.16,2.06,9.2,3.18s6.22,2.51,9.37,3.65c.23.08.13.43-.1.36-3.09-1-6.24-1.78-9.33-2.75s-6.34-2.14-9.5-3.22Q97.24,346.2,88,342.54A.15.15,0,0,1,88.13,342.25Z" style="fill:#263238"></path><path d="M126.2,366c.17-6.59,1.19-13,1.75-19.56s1-13.13,1.31-19.72a.12.12,0,0,1,.24,0c0,3.31.11,6.63,0,9.92,0,1.64-.14,3.27-.24,4.9.17-.61.31-1.24.49-1.84a54,54,0,0,1,2-5.34c0-.09.17,0,.15.08a55.06,55.06,0,0,1-1.41,5.59c-.42,1.32-.89,2.6-1.35,3.89-.07.95-.14,1.89-.2,2.84-.43,6.5-.83,13.07-2.4,19.29C126.49,366.21,126.19,366.16,126.2,366Z" style="fill:#263238"></path><rect x="122.37" y="352.33" width="108.54" height="83.38" transform="translate(-219 566.99) rotate(-89.47)" style="fill:#407BFF"></rect><rect x="122.37" y="352.33" width="108.54" height="83.38" transform="translate(-219 566.99) rotate(-89.47)" style="opacity:0.5"></rect><rect x="157.03" y="334.17" width="39.52" height="11.97" transform="translate(350.8 681.75) rotate(-179.53)" style="fill:#dbdbdb"></rect><polygon points="166.06 334.09 170.92 334.13 170.97 328.61 182.79 328.71 182.75 334.23 187.61 334.27 187.69 324.21 166.07 324.03 166.06 334.09" style="fill:#dbdbdb"></polygon><path d="M71.43,447.68c12,8.08,33.94,2,90.5-8,7.83-1.39,12.86-59.27,4.43-58.22-10.63,1.34-51.57,8.81-54.5,9.73C87.19,399,63.27,442.2,71.43,447.68Z" style="fill:#d3766a"></path><path d="M219.31,372.92c3.19,5.2-.95,10-.95,10a13,13,0,0,1,6.1,6.42c1.92,5-5.1,10.21-5.1,10.21a16.1,16.1,0,0,1,5.36,7.8c1.35,5-5,11.24-5,11.24a14.06,14.06,0,0,1,.39,9.82c-3.16,8.47-16.69,11.24-25.27,13.09s-34.66-1-39.68-1l-12.34-55s36.13-19.24,46.53-20C198.14,364.92,215.72,367.08,219.31,372.92Z" style="fill:#d3766a"></path><path d="M217.78,382.1c-9.48-1.57-18.9-.26-28.38.52a.17.17,0,0,0,0,.33c9.42-.89,18.89.11,28.33-.4A.23.23,0,0,0,217.78,382.1Z" style="fill:#263238"></path><path d="M219,398.85a25.21,25.21,0,0,0-6.54.41q-3.45.47-6.88,1c-4.58.77-9.15,1.63-13.68,2.63-.2.05-.19.37,0,.33,4.56-.75,9.14-1.43,13.74-2q3.45-.42,6.91-.79a29.35,29.35,0,0,0,6.47-1A.33.33,0,0,0,219,398.85Z" style="fill:#263238"></path><path d="M219.55,418.59c-1.86-.33-4,.34-5.86.69q-3.12.59-6.25,1.14c-4.16.73-8.33,1.46-12.53,2.05-.2,0-.18.36,0,.33,4.27-.58,8.54-1.1,12.79-1.71,2.09-.3,4.18-.62,6.27-.94,1.77-.28,4-.42,5.6-1.35A.12.12,0,0,0,219.55,418.59Z" style="fill:#263238"></path><path d="M85.88,411c3.07-4.75,13.41-19.91,34.82-21.8.15,0,.24.2.09.23-19.17,4.21-31.39,17.4-34.74,21.72C86,411.25,85.8,411.1,85.88,411Z" style="fill:#263238"></path><path d="M136.33,286c.77,2.52,15,17.1,26.36,13.83,8-2.31,1.77-18.07,1.77-18.07l3.67-23.43L137.89,241.8S136,284.91,136.33,286Z" style="fill:#d3766a"></path><path d="M137.25,256.94a45.26,45.26,0,0,0,27.42,23.49l3.46-22.12L137.89,241.8S137.6,248.64,137.25,256.94Z" style="fill:#263238"></path><path d="M194.43,219.65C205,257,183.76,267.58,175.68,269.84c-7.34,2.06-32.57,8.13-47-28s-.31-52.82,16.22-58.41S183.86,182.27,194.43,219.65Z" style="fill:#d3766a"></path><path d="M188.14,212.24a26.83,26.83,0,0,1-2.69,0,4.48,4.48,0,0,1-2.77-.48,1.38,1.38,0,0,1-.37-1.65,3.42,3.42,0,0,1,3.13-1.54,5.06,5.06,0,0,1,3.5,1A1.48,1.48,0,0,1,188.14,212.24Z" style="fill:#263238"></path><path d="M162.59,219.34c.87-.31,1.62-.74,2.45-1.13a4.3,4.3,0,0,0,2.28-1.63,1.39,1.39,0,0,0-.38-1.65,3.43,3.43,0,0,0-3.49,0,5.08,5.08,0,0,0-2.71,2.45A1.49,1.49,0,0,0,162.59,219.34Z" style="fill:#263238"></path><path d="M170.1,226.43c0-.09-.17.18-.14.28.73,2.55,1.14,5.6-1,7-.07,0,0,.17.06.14C171.79,232.78,171.2,228.74,170.1,226.43Z" style="fill:#263238"></path><path d="M167.11,224.33c-4.23.73-2.44,9.12,1.47,8.44S170.66,223.71,167.11,224.33Z" style="fill:#263238"></path><path d="M165.56,225.12c-.64.63-1.18,1.62-2,1.89-1,.32-2-.39-2.82-1.09-.08-.08-.14,0-.12.12.32,1.62,1.29,3.13,3.07,3,1.62-.12,2.45-1.78,2.5-3.48C166.17,225.25,165.81,224.87,165.56,225.12Z" style="fill:#263238"></path><path d="M184.53,222.46c0-.1.23.09.25.19.45,2.62,1.4,5.55,3.94,5.93.08,0,.1.14,0,.15C185.76,228.91,184.53,225,184.53,222.46Z" style="fill:#263238"></path><path d="M186.3,219.27c4.13-1.17,6.18,7.16,2.35,8.24S182.84,220.25,186.3,219.27Z" style="fill:#263238"></path><path d="M188.18,219.39c.76.28,1.61.93,2.41.78s1.38-1.23,1.76-2.23c0-.11.12-.05.15.06.43,1.58.31,3.37-1.15,4.05s-2.69-.5-3.46-2C187.75,219.78,187.87,219.28,188.18,219.39Z" style="fill:#263238"></path><path d="M174.36,247.37c.73.51,1.49,1.25,2.46,1.17a6.94,6.94,0,0,0,2.71-1.12c.08,0,.18,0,.14.11a3.58,3.58,0,0,1-3.1,2,2.84,2.84,0,0,1-2.45-2C174.06,247.39,174.25,247.3,174.36,247.37Z" style="fill:#263238"></path><path d="M183.11,235.57s1.4,3.75,1.81,5.57c0,.17-.38.36-1,.53a.08.08,0,0,1-.08,0,8.91,8.91,0,0,1-9.17-1.35.19.19,0,0,1,.21-.31,13.56,13.56,0,0,0,8.46.49c0-.54-2.63-6.35-2.34-6.43a16.31,16.31,0,0,1,4.36,0c-2.7-7.9-6.65-15.3-9.22-23.21a.25.25,0,0,1,.45-.22c4.69,7.46,8,16.48,11,24.57C188,236.24,183.91,235.71,183.11,235.57Z" style="fill:#263238"></path><path d="M183.46,240.86a10.83,10.83,0,0,1-3.19,4.47,4.94,4.94,0,0,1-2.78,1c-2.22.08-2.84-1.79-3-3.51a11.75,11.75,0,0,1,.18-2.74A14.06,14.06,0,0,0,183.46,240.86Z" style="fill:#263238"></path><path d="M180.27,245.33a4.94,4.94,0,0,1-2.78,1c-2.22.08-2.84-1.79-3-3.51C176.81,242.41,179.44,243.25,180.27,245.33Z" style="fill:#ff9bbc"></path><path d="M130.25,243.46A15.79,15.79,0,0,0,137,229.35a41.34,41.34,0,0,0,14.52-16c-.13.83-1.07,6.76-1.65,9.77,23.38-8.32,27.91-27.9,27.91-27.9,9,6.54,11.41,11.27,12.93,13.58,0,0-2.17-14.79-11.34-23.46-11.23-10.62-43.16-8.91-55.19,9.17C111.23,214,130.25,243.46,130.25,243.46Z" style="fill:#263238"></path><path d="M167.55,216.21a45,45,0,0,1-11.64,6.49s-.06,0,0,0a38.28,38.28,0,0,0,16-13.48,35.92,35.92,0,0,0,4-8.08,25,25,0,0,0,1.74-9.68.19.19,0,0,1,.38,0,29.21,29.21,0,0,1-.4,9.78,26.65,26.65,0,0,1-4.09,8.81,30.81,30.81,0,0,1-6,6.23" style="fill:#263238"></path><path d="M183.34,189c-4.39.28-27,8-35.84,15.51S125,232.41,124.28,233.48s-16.93-35,11.4-51.26C166.55,164.55,183.34,189,183.34,189Z" style="fill:#407BFF"></path><path d="M125.56,231.4s11.95-32.74,21.28-42.24,33.31-20.64,50.89-18.58c13.71,1.6-11,26.2-11,26.2s-2.14-4-6.5-4.39c-8.46-.66-22.07,6-29.39,11.3C141.64,210.3,125.56,231.4,125.56,231.4Z" style="fill:#407BFF"></path><path d="M125.56,231.4s11.95-32.74,21.28-42.24,33.31-20.64,50.89-18.58c13.71,1.6-11,26.2-11,26.2s-2.14-4-6.5-4.39c-8.46-.66-22.07,6-29.39,11.3C141.64,210.3,125.56,231.4,125.56,231.4Z" style="opacity:0.2"></path><path d="M167,241.47A12,12,0,1,1,176.29,225h0A12,12,0,0,1,167,241.47Zm-3.28-22.07a10.2,10.2,0,0,0-2.48.69,10.37,10.37,0,1,0,2.48-.69Z" style="fill:#407BFF"></path><path d="M193.47,234.16c-4.53.68-9.32-3.35-10.95-9.37a14.21,14.21,0,0,1,.25-8.73,7.45,7.45,0,0,1,12.31-3.33,14.26,14.26,0,0,1,4.62,7.41c1.72,6.36-.73,12.58-5.47,13.86A5.14,5.14,0,0,1,193.47,234.16ZM189,212.34a4.29,4.29,0,0,0-.6.13,6.37,6.37,0,0,0-4.14,4.16,12.77,12.77,0,0,0-.2,7.74c1.49,5.51,5.86,9.15,9.76,8.09s5.83-6.39,4.34-11.9a12.74,12.74,0,0,0-4.08-6.58A6.6,6.6,0,0,0,189,212.34Z" style="fill:#407BFF"></path><path d="M176.26,226.47l-1.31-.92c1.36-1.94,4.87-5,8.5-2.76l-.84,1.36C179.36,222.12,176.39,226.29,176.26,226.47Z" style="fill:#407BFF"></path><path d="M128,243.16l-1.56-.34c.16-.73,1.63-7.16,4.93-8.65,3.08-1.39,21.89-4.85,22.79-5l.27,1.58c-6.08,1-20,3.81-22.4,4.88C129.89,236.61,128.43,241.4,128,243.16Z" style="fill:#407BFF"></path><path d="M135.17,240.42s-10.62-10.32-15.47-6.32,4.73,20.07,11.53,21.22a6.58,6.58,0,0,0,8-5.12Z" style="fill:#d3766a"></path><path d="M122.56,238.64a.09.09,0,0,0,0,.17c4.8,1,7.93,4.63,10.4,8.6-1.64-1.4-3.62-1.95-5.53,0-.1.11,0,.27.17.22a4,4,0,0,1,4.64.55,19.7,19.7,0,0,1,2.77,3.13c.28.36,1,0,.72-.42a.41.41,0,0,1,0-.09C134.7,245.14,128.77,238.05,122.56,238.64Z" style="fill:#263238"></path></g></svg>
